<svg height="382" viewBox="0 0 388 382" width="388" xmlns="http://www.w3.org/2000/svg"><g fill="none" fill-rule="evenodd"><circle cx="146.5872" cy="167.106667" fill="#6666d3" r="146.773333"/><path d="m379.359467 214.893333c0-21.152426-14.87872-40.02816-34.727254-44.373333 10.502827-8.082773 17.384107-19.396267 17.384107-33.672533 0-24.41216-19.790507-44.202667-44.204373-44.202667-8.1408 0-15.668907 2.3552-22.219094 6.1934933.244054-1.7646933.539307-3.5157333.539307-5.3486933.001707-21.5534933-17.46944-39.0229333-39.021227-39.0229333-21.551786 0-39.022933 17.46944-39.022933 39.0212266v242.8074667c0 21.551787 17.471147 39.022933 39.022933 39.022933 21.551787 0 39.022934-17.471146 39.022934-39.022933 0-1.83296-.295254-3.584-.539307-5.3504 6.550187 3.838293 14.078293 6.1952 22.219093 6.1952 24.41216 0 44.204374-19.790507 44.204374-44.202667 0-14.276266-6.88128-26.83392-17.3824-34.916693 19.84512-4.345173 34.72384-21.976747 34.72384-43.127467z" fill="#e4003a"/><path d="m257.110933 382.146667c-25.280853 0-45.8496-20.568747-45.8496-45.8496v-242.8091737c0-25.2808533 20.56704-45.8478933 45.8496-45.8478933 23.493974 0 42.917547 17.7646933 45.54752 40.5674667 4.913494-1.5906134 9.980587-2.3893334 15.1552-2.3893334 28.137814 0 51.029334 22.8915197 51.029334 51.0293337 0 11.64288-3.923627 22.176426-11.45344 30.977706 17.2032 8.53504 28.796586 26.76224 28.796586 47.06816 0 19.746134-11.636053 37.541547-28.895573 45.914454 7.435947 9.012906 11.552427 20.25472 11.552427 32.129706 0 28.137814-22.89152 51.029334-51.029334 51.029334-5.174613 0-10.241706-.800427-15.1552-2.389334-2.629973 22.80448-22.053546 40.569174-45.54752 40.569174zm0-320.8533337c-17.752746 0-32.196266 14.44352-32.196266 32.19456v242.8091737c0 17.752746 14.44352 32.196266 32.196266 32.196266 17.75104 0 32.19456-14.44352 32.19456-32.196266 0-1.076907-.167253-2.245974-.360106-3.602774l-.114347-.815786c-.356693-2.59072.797013-5.15584 2.971307-6.608214 2.174293-1.45408 4.985173-1.534293 7.243093-.213333 5.952853 3.490133 12.26752 5.25824 18.766507 5.25824 20.609706 0 37.376-16.766293 37.376-37.376 0-11.554133-5.36576-22.30784-14.72-29.50656-2.102614-1.61792-3.078827-4.309333-2.49856-6.90176.580266-2.59072 2.607786-4.609707 5.20192-5.17632 17.012053-3.725653 29.359786-19.058347 29.359786-36.45952 0-17.831253-12.622506-34.039467-29.359786-37.705387-2.594134-.566613-4.621654-2.587306-5.20192-5.17632-.580267-2.589013.39424-5.282133 2.49856-6.90176 9.767253-7.517866 14.72-17.027413 14.72-28.264106 0-20.609707-16.766294-37.3760003-37.376-37.3760003-6.498987 0-12.813654 1.7681063-18.766507 5.2582403-2.254507 1.32096-5.067093 1.242453-7.243093-.213334-2.174294-1.452373-3.328-4.017493-2.971307-6.608213l.114347-.8174933c.192853-1.3550934.360106-2.52416.360106-3.6010667 0-17.7527467-14.44352-32.1962667-32.19456-32.1962667z" fill="#4c241d" fill-rule="nonzero"/><path d="m56.8165333 214.893333c0-21.152426 14.87872-40.02816 34.7272534-44.373333-10.50112-8.082773-17.3841067-19.396267-17.3841067-33.672533 0-24.41216 19.7905067-44.202667 44.204373-44.202667 8.1408 0 15.668907 2.3552 22.219094 6.1934933-.244054-1.7646933-.539307-3.5157333-.539307-5.3486933-.001707-21.5534933 17.46944-39.0229333 39.021227-39.0229333 21.551786 0 39.022933 17.46944 39.022933 39.0212266v242.8074667c0 21.551787-17.471147 39.022933-39.022933 39.022933-21.551787 0-39.022934-17.471146-39.022934-39.022933 0-1.83296.295254-3.584.539307-5.3504-6.550187 3.838293-14.078293 6.1952-22.219093 6.1952-24.4121603 0-44.2043737-19.790507-44.2043737-44.202667 0-14.276266 6.88128-26.83392 17.3824-34.916693-19.84512-4.345173-34.72384-21.976747-34.72384-43.127467z" fill="#ffded5"/><g fill="#4c241d" transform="translate(49.64 -.146667)"><path d="m129.42336 382.293333c-23.493973 0-42.9175467-17.764693-45.54752-40.569173-4.9134933 1.590613-9.9805867 2.389333-15.1552 2.389333-28.1378133 0-51.0293333-22.89152-51.0293333-51.029333 0-11.874987 4.1147733-23.115093 11.5524266-32.129707-17.2578133-8.372906-28.89386663-26.16832-28.89386663-45.914453 0-20.30592 11.59338663-38.53312 28.79658663-47.06816-7.5298133-8.80128-11.45344-19.334827-11.45344-30.977707 0-28.137813 22.89152-51.029333 51.0293334-51.029333 5.1746133 0 10.2417066.8004267 15.1552 2.3893333 2.6282666-22.8010666 22.0535463-40.5674666 45.5475203-40.5674666 25.280853 0 45.8496 20.56704 45.8496 45.8478933v242.809173c0 25.280854-20.568747 45.8496-45.851307 45.8496zm-38.48192-58.026666c1.3243733 0 2.64704.385706 3.7922133 1.150293 2.1742934 1.452373 3.328 4.017493 2.9713067 6.608213l-.1143467.815787c-.1928533 1.3568-.3601066 2.525867-.3601066 3.602773 0 17.752747 14.4435203 32.196267 32.1945603 32.196267 17.752746 0 32.196266-14.44352 32.196266-32.196267v-242.809173c0-17.75104-14.44352-32.19456-32.197973-32.19456-17.75104 0-32.19456 14.44352-32.19456 32.19456 0 1.0769067.1672533 2.2459733.3601067 3.6010667l.1143466.8174933c.3566934 2.59072-.7970133 5.15584-2.9713066 6.608213-2.176 1.45408-4.9885867 1.53088-7.2430934.213334-5.9528533-3.490134-12.26752-5.2582403-18.7665066-5.2582403-20.6097067 0-37.376 16.7662933-37.376 37.3760003 0 11.236693 4.9527466 20.744533 14.72 28.264106 2.1026133 1.619627 3.0788266 4.31104 2.49856 6.90176-.5802667 2.59072-2.6077867 4.609707-5.20192 5.17632-16.7389867 3.66592-29.3597867 19.874134-29.3597867 37.705387 0 17.401173 12.3477333 32.735573 29.3597867 36.45952 2.5941333.566613 4.6216533 2.587307 5.20192 5.17632.5802666 2.592427-.39424 5.28384-2.49856 6.90176-9.35424 7.200427-14.72 17.954133-14.72 29.50656 0 20.609707 16.7662933 37.376 37.376 37.376 6.4989866 0 12.8136533-1.768107 18.7665066-5.25824 1.0683734-.622933 2.2596267-.935253 3.4525867-.935253z" fill-rule="nonzero"/><g transform="translate(30.72)"><path d="m163.74272 182.843733c-3.770027 0-6.826667-3.05664-6.826667-6.826666 0-18.107734 14.733654-32.841387 32.841387-32.841387h8.671573c10.579627 0 19.188054-8.608427 19.188054-19.188053 0-3.770027 3.05664-6.826667 6.826666-6.826667 3.770027 0 6.826667 3.05664 6.826667 6.826667 0 18.107733-14.733653 32.841386-32.841387 32.841386h-8.671573c-10.579627 0-19.188053 8.608427-19.188053 19.188054 0 3.770026-3.05664 6.826666-6.826667 6.826666z"/><path d="m250.458453 226.2016h-4.334933c-15.7184 0-28.506453-13.98784-28.506453-31.182507 0-17.194666 12.788053-31.179093 28.506453-31.179093h21.679787c3.770026 0 6.826666 3.05664 6.826666 6.826667 0 3.770026-3.05664 6.826666-6.826666 6.826666h-21.679787c-8.190293 0-14.85312 7.860907-14.85312 17.527467s6.662827 17.529173 14.85312 17.529173h4.334933c3.770027 0 6.826667 3.05664 6.826667 6.826667s-3.05664 6.82496-6.826667 6.82496z"/><path d="m189.75744 312.91904c-1.74592 0-3.495253-.667307-4.826453-2.000213-2.665814-2.665814-2.665814-6.9888 0-9.652907l15.389013-15.387307c5.563733-5.563733 8.6272-12.962133 8.6272-20.829866 0-5.835094-1.71008-11.48416-4.94592-16.339627l-11.250347-16.87552c-2.092373-3.136853-1.24416-7.374507 1.892694-9.46688 3.135146-2.097493 7.374506-1.24416 9.46688 1.892693l11.250346 16.87552c4.736 7.104854 7.23968 15.373654 7.23968 23.913814 0 11.51488-4.483413 22.341973-12.62592 30.482773l-15.389013 15.387307c-1.334613 1.332906-3.08224 2.000213-4.82816 2.000213z"/><path d="m178.8672 279.893333c-3.770027 0-6.826667-3.05664-6.826667-6.826666 0-11.293014-9.186986-20.48-20.48-20.48h-8.192c-3.770026 0-6.826666-3.05664-6.826666-6.826667s3.05664-6.826667 6.826666-6.826667h8.192c18.82112 0 34.133334 15.312214 34.133334 34.133334 0 3.770026-3.05664 6.826666-6.826667 6.826666z"/><path d="m112.07168 182.843733c-3.770027 0-6.826667-3.05664-6.826667-6.826666 0-10.579627-8.6084263-19.188054-19.188053-19.188054h-8.6715733c-18.1077334 0-32.8413867-14.733653-32.8413867-32.841386 0-3.770027 3.05664-6.826667 6.8266667-6.826667 3.7700266 0 6.8266666 3.05664 6.8266666 6.826667 0 10.579626 8.6084267 19.188053 19.1880534 19.188053h8.6715733c18.107733 0 32.841387 14.733653 32.841387 32.841387 0 3.770026-3.05664 6.826666-6.826667 6.826666z"/><path d="m29.69088 226.2016h-4.3349333c-3.7700267 0-6.8266667-3.05664-6.8266667-6.826667 0-3.770026 3.05664-6.826666 6.8266667-6.826666h4.3349333c8.1902933 0 14.85312-7.862614 14.85312-17.529174s-6.6628267-17.52576-14.85312-17.52576h-21.67808c-3.77002667 0-6.82666667-3.05664-6.82666667-6.826666 0-3.770027 3.05664-6.826667 6.82666667-6.826667h21.67808c15.7184 0 28.5064533 13.986133 28.5064533 31.1808s-12.7880533 31.1808-28.5064533 31.1808z"/><path d="m91.68896 303.744c-8.92416 0-17.6042667-2.771627-25.0043733-8.070827-6.94272-4.97152-12.2077867-11.82208-15.22688-19.810986l-7.168-18.967894c-1.3329067-3.525973.44544-7.466666 3.9714133-8.797866 3.5293867-1.339734 7.4666667.443733 8.7978667 3.971413l7.1697066 18.9696c2.06336 5.45792 5.6593067 10.1376 10.4055467 13.53728 6.3965867 4.5824 14.1994667 6.396587 21.9562667 5.111467l21.4715733-3.551574c3.70688-.62976 7.231147 1.901227 7.84896 5.62176.6144 3.718827-1.901227 7.232854-5.620053 7.84896l-21.4715737 3.551574c-2.3808.390826-4.7633066.587093-7.1304533.587093z"/><path d="m102.408533 238.933333c-3.7700263 0-6.8266663-3.05664-6.8266663-6.826666 0-18.82112 15.3122133-34.133334 34.1333333-34.133334h8.192c3.770027 0 6.826667 3.05664 6.826667 6.826667s-3.05664 6.826667-6.826667 6.826667h-8.192c-11.293013 0-20.48 9.186986-20.48 20.48 0 3.770026-3.05664 6.826666-6.826667 6.826666z"/><path d="m253.960533 54.6133333c-1.74592 0-3.495253-.6673066-4.826453-2.0002133-2.665813-2.6658133-2.665813-6.9888 0-9.6529067l20.48-20.48c2.664107-2.6658133 6.990507-2.6658133 9.652907 0 2.665813 2.6658134 2.665813 6.9888 0 9.6529067l-20.48 20.48c-1.3312 1.3329067-3.078827 2.0002133-4.826454 2.0002133z"/><path d="m294.920533 75.0933333h-27.306666c-3.770027 0-6.826667-3.05664-6.826667-6.8266666 0-3.7700267 3.05664-6.8266667 6.826667-6.8266667h27.306666c3.770027 0 6.826667 3.05664 6.826667 6.8266667 0 3.7700266-3.05664 6.8266666-6.826667 6.8266666z"/><path d="m233.480533 40.96c-3.770026 0-6.826666-3.05664-6.826666-6.8266667v-27.30666663c0-3.77002667 3.05664-6.82666667 6.826666-6.82666667 3.770027 0 6.826667 3.05664 6.826667 6.82666667v27.30666663c0 3.7700267-3.05664 6.8266667-6.826667 6.8266667z"/></g></g></g></svg>